<?xml version="1.0" encoding="utf-8" ?>
<svg xmlns="http://www.w3.org/2000/svg" xmlns:xlink="http://www.w3.org/1999/xlink" width="96" height="107">
	<defs>
		<clipPath id="clip_0">
			<rect x="-1083" y="-420" width="2456" height="1807" clip-rule="evenodd"/>
		</clipPath>
	</defs>
	<g clip-path="url(#clip_0)">
		<path fill="rgb(28,93,164)" stroke="none" transform="translate(14 0)" d="M81.7694 106.363L0 106.363L0 0L56.2165 0L81.7694 25.3245L81.7694 106.363Z"/>
	</g>
	<defs>
		<clipPath id="clip_1">
			<rect x="-1083" y="-420" width="2456" height="1807" clip-rule="evenodd"/>
		</clipPath>
	</defs>
	<g clip-path="url(#clip_1)">
		<path fill="rgb(123,182,246)" stroke="none" transform="translate(67.7849 3.50818)" d="M24.2753 24.0582L0 24.0582L0 0L24.2753 24.0582Z"/>
	</g>
	<defs>
		<clipPath id="clip_2">
			<rect x="-1083" y="-420" width="2456" height="1807" clip-rule="evenodd"/>
		</clipPath>
	</defs>
	<g clip-path="url(#clip_2)">
		<path fill="rgb(44,122,205)" stroke="none" transform="translate(0 16)" d="M4 0L51 0Q51.205 0 51.4069 0.0186425Q51.6087 0.037285 51.8058 0.0744179Q52.0028 0.111551 52.1934 0.166871Q52.384 0.222192 52.5667 0.295249Q52.7493 0.368306 52.9225 0.458503Q53.0957 0.5487 53.258 0.655303Q53.4203 0.761905 53.5704 0.884043Q53.7205 1.00618 53.8571 1.14286Q53.9938 1.27953 54.116 1.42964Q54.2381 1.57974 54.3447 1.74204Q54.4513 1.90434 54.5415 2.07752Q54.6317 2.2507 54.7048 2.43334Q54.7778 2.61598 54.8331 2.8066Q54.8885 2.99721 54.9256 3.19425Q54.9627 3.39129 54.9814 3.59314Q55 3.79499 55 4L55 24Q55 24.205 54.9814 24.4069Q54.9627 24.6087 54.9256 24.8058Q54.8885 25.0028 54.8331 25.1934Q54.7778 25.384 54.7048 25.5667Q54.6317 25.7493 54.5415 25.9225Q54.4513 26.0957 54.3447 26.258Q54.2381 26.4203 54.116 26.5704Q53.9938 26.7205 53.8571 26.8571Q53.7205 26.9938 53.5704 27.116Q53.4203 27.2381 53.258 27.3447Q53.0957 27.4513 52.9225 27.5415Q52.7493 27.6317 52.5667 27.7048Q52.384 27.7778 52.1934 27.8331Q52.0028 27.8885 51.8057 27.9256Q51.6087 27.9627 51.4069 27.9814Q51.205 28 51 28L4 28Q3.79499 28 3.59314 27.9814Q3.39129 27.9627 3.19425 27.9256Q2.99721 27.8885 2.8066 27.8331Q2.61598 27.7778 2.43334 27.7048Q2.2507 27.6317 2.07752 27.5415Q1.90434 27.4513 1.74204 27.3447Q1.57974 27.2381 1.42964 27.116Q1.27953 26.9938 1.14286 26.8571Q1.00618 26.7205 0.884043 26.5704Q0.761905 26.4203 0.655303 26.258Q0.5487 26.0957 0.458503 25.9225Q0.368306 25.7493 0.295249 25.5667Q0.222192 25.384 0.166871 25.1934Q0.111551 25.0028 0.0744179 24.8058Q0.037285 24.6087 0.0186425 24.4069Q0 24.205 0 24L0 4Q0 3.79499 0.0186425 3.59314Q0.037285 3.39129 0.0744179 3.19425Q0.111551 2.99721 0.166871 2.8066Q0.222192 2.61598 0.295249 2.43334Q0.368306 2.2507 0.458503 2.07752Q0.5487 1.90434 0.655303 1.74204Q0.761905 1.57974 0.884043 1.42964Q1.00618 1.27953 1.14286 1.14286Q1.27953 1.00618 1.42964 0.884043Q1.57974 0.761905 1.74204 0.655303Q1.90434 0.5487 2.07752 0.458503Q2.2507 0.368306 2.43334 0.295249Q2.61598 0.222192 2.8066 0.166871Q2.99721 0.111551 3.19425 0.0744179Q3.39129 0.037285 3.59314 0.0186425Q3.79499 0 4 0Z"/>
	</g>
	<defs>
		<clipPath id="clip_3">
			<rect x="-1083" y="-420" width="2456" height="1807" clip-rule="evenodd"/>
		</clipPath>
	</defs>
	<g clip-path="url(#clip_3)">
		<path fill="rgb(123,182,246)" stroke="none" transform="translate(10.1426 24.0273)" d="M21.11 10.1777C21.5553 9.22851 21.778 8.12403 21.778 6.86426L21.778 6.29297C21.778 5.03906 21.5509 3.93311 21.0968 2.9751C20.6427 2.01709 20.0011 1.28174 19.172 0.769043C18.3429 0.256345 17.3952 0 16.3287 0C15.2623 0 14.3146 0.256345 13.4855 0.769043C12.6564 1.28174 12.0148 2.01709 11.5607 2.9751C11.1066 3.93311 10.8795 5.04199 10.8795 6.30176L10.8795 6.93457C10.8854 8.16505 11.1168 9.25341 11.5739 10.1997C12.0309 11.146 12.6754 11.874 13.5075 12.3838C14.3395 12.8936 15.2858 13.1484 16.3463 13.1484C17.4186 13.1484 18.3693 12.8906 19.1984 12.375C20.0275 11.8594 20.6647 11.127 21.11 10.1777ZM31.783 11.9619C32.7 11.1709 33.2083 10.0869 33.3079 8.70996L30.6712 8.70996C30.6126 9.48926 30.3826 10.0649 29.9812 10.437C29.5798 10.8091 28.9719 10.9951 28.1575 10.9951C27.2551 10.9951 26.5945 10.6758 26.1756 10.0371C25.7566 9.39843 25.5471 8.3877 25.5471 7.00488L25.5471 6.03809C25.5589 4.71386 25.783 3.73682 26.2195 3.10693C26.656 2.47705 27.3137 2.16211 28.1926 2.16211C29.0012 2.16211 29.6033 2.34814 29.9988 2.72021C30.3943 3.09229 30.6243 3.6914 30.6887 4.51758L33.3255 4.51758C33.1848 3.08788 32.6633 1.97754 31.761 1.18652C30.8587 0.395504 29.6692 0 28.1926 0C27.1262 0 26.1902 0.250486 25.3845 0.751465C24.5789 1.25244 23.9592 1.97168 23.5256 2.90918C23.0921 3.84668 22.8753 4.93066 22.8753 6.16113L22.8753 6.94336C22.8753 8.8711 23.3455 10.3872 24.2859 11.4917C25.2263 12.5962 26.5169 13.1484 28.1575 13.1484C29.6575 13.1484 30.866 12.7529 31.783 11.9619ZM0 12.9727L0 0.175781L3.9375 0.175781C5.06251 0.175781 6.06884 0.429197 6.95654 0.936035C7.84424 1.44287 8.53711 2.16357 9.03516 3.09814C9.53321 4.03272 9.78223 5.09472 9.78223 6.28418L9.78223 6.87305C9.78223 8.06251 9.5376 9.12011 9.04834 10.0459C8.55908 10.9717 7.86915 11.6895 6.97852 12.1992C6.08789 12.709 5.08301 12.9668 3.96387 12.9727L0 12.9727ZM19.1061 6.28418C19.1061 4.94238 18.8659 3.92286 18.3854 3.22559C17.9049 2.52832 17.2194 2.17969 16.3287 2.17969C15.444 2.17969 14.7614 2.52392 14.2809 3.2124C13.8004 3.90088 13.5573 4.91015 13.5514 6.24023L13.5514 6.86426C13.5514 8.17091 13.7916 9.18457 14.2721 9.90527C14.7526 10.626 15.444 10.9863 16.3463 10.9863C17.2311 10.9863 17.9108 10.6392 18.3854 9.94482C18.86 9.25048 19.1002 8.23829 19.1061 6.9082L19.1061 6.28418ZM2.63672 2.31152L2.63672 10.8545L3.91113 10.8545C4.94239 10.8545 5.73047 10.5176 6.27539 9.84375C6.82032 9.16992 7.09863 8.20606 7.11035 6.95215L7.11035 6.27539C7.11035 4.9746 6.84082 3.98877 6.30176 3.31787C5.76269 2.64697 4.97461 2.31152 3.9375 2.31152L2.63672 2.31152Z" fill-rule="evenodd"/>
	</g>
	<defs>
		<clipPath id="clip_4">
			<rect x="-1083" y="-420" width="2456" height="1807" clip-rule="evenodd"/>
		</clipPath>
	</defs>
	<g clip-path="url(#clip_4)">
		<path fill="rgb(123,182,246)" stroke="none" transform="translate(35 60)" d="M0 3.90093L2.60062 3.90093L2.60062 27.3071L11.0529 27.3071L17.5545 15.7395L17.5545 27.3071L25.3563 27.3071L37.0594 3.90093L39.66 3.90093L39.66 0L27.9572 0L27.9572 3.90093L29.9077 3.90093L25.3563 12.8679L25.3563 0L16.2541 0L8.45202 14.6831L8.45202 3.90093L11.0529 3.90093L11.0529 0L0 0L0 3.90093Z"/>
	</g>

</svg>