<?xml version="1.0" encoding="utf-8" ?>
<svg xmlns="http://www.w3.org/2000/svg" xmlns:xlink="http://www.w3.org/1999/xlink" width="96" height="107">
	<defs>
		<clipPath id="clip_0">
			<rect x="-1220" y="-420" width="2456" height="1807" clip-rule="evenodd"/>
		</clipPath>
	</defs>
	<g clip-path="url(#clip_0)">
		<path fill="rgb(28,93,164)" stroke="none" transform="translate(14 0)" d="M81.7694 106.363L0 106.363L0 0L56.2165 0L81.7694 25.3245L81.7694 106.363Z"/>
	</g>
	<defs>
		<clipPath id="clip_1">
			<rect x="-1220" y="-420" width="2456" height="1807" clip-rule="evenodd"/>
		</clipPath>
	</defs>
	<g clip-path="url(#clip_1)">
		<path fill="rgb(123,182,246)" stroke="none" transform="translate(67.7849 3.50818)" d="M24.2753 24.0582L0 24.0582L0 0L24.2753 24.0582Z"/>
	</g>
	<defs>
		<clipPath id="clip_2">
			<rect x="-1220" y="-420" width="2456" height="1807" clip-rule="evenodd"/>
		</clipPath>
	</defs>
	<g clip-path="url(#clip_2)">
		<path fill="rgb(44,122,205)" stroke="none" transform="translate(0 16)" d="M4 0L51 0Q51.205 0 51.4069 0.0186425Q51.6087 0.037285 51.8058 0.0744179Q52.0028 0.111551 52.1934 0.166871Q52.384 0.222192 52.5667 0.295249Q52.7493 0.368306 52.9225 0.458503Q53.0957 0.5487 53.258 0.655303Q53.4203 0.761905 53.5704 0.884043Q53.7205 1.00618 53.8571 1.14286Q53.9938 1.27953 54.116 1.42964Q54.2381 1.57974 54.3447 1.74204Q54.4513 1.90434 54.5415 2.07752Q54.6317 2.2507 54.7048 2.43334Q54.7778 2.61598 54.8331 2.8066Q54.8885 2.99721 54.9256 3.19425Q54.9627 3.39129 54.9814 3.59314Q55 3.79499 55 4L55 24Q55 24.205 54.9814 24.4069Q54.9627 24.6087 54.9256 24.8058Q54.8885 25.0028 54.8331 25.1934Q54.7778 25.384 54.7048 25.5667Q54.6317 25.7493 54.5415 25.9225Q54.4513 26.0957 54.3447 26.258Q54.2381 26.4203 54.116 26.5704Q53.9938 26.7205 53.8571 26.8571Q53.7205 26.9938 53.5704 27.116Q53.4203 27.2381 53.258 27.3447Q53.0957 27.4513 52.9225 27.5415Q52.7493 27.6317 52.5667 27.7048Q52.384 27.7778 52.1934 27.8331Q52.0028 27.8885 51.8057 27.9256Q51.6087 27.9627 51.4069 27.9814Q51.205 28 51 28L4 28Q3.79499 28 3.59314 27.9814Q3.39129 27.9627 3.19425 27.9256Q2.99721 27.8885 2.8066 27.8331Q2.61598 27.7778 2.43334 27.7048Q2.2507 27.6317 2.07752 27.5415Q1.90434 27.4513 1.74204 27.3447Q1.57974 27.2381 1.42964 27.116Q1.27953 26.9938 1.14286 26.8571Q1.00618 26.7205 0.884043 26.5704Q0.761905 26.4203 0.655303 26.258Q0.5487 26.0957 0.458503 25.9225Q0.368306 25.7493 0.295249 25.5667Q0.222192 25.384 0.166871 25.1934Q0.111551 25.0028 0.0744179 24.8058Q0.037285 24.6087 0.0186425 24.4069Q0 24.205 0 24L0 4Q0 3.79499 0.0186425 3.59314Q0.037285 3.39129 0.0744179 3.19425Q0.111551 2.99721 0.166871 2.8066Q0.222192 2.61598 0.295249 2.43334Q0.368306 2.2507 0.458503 2.07752Q0.5487 1.90434 0.655303 1.74204Q0.761905 1.57974 0.884043 1.42964Q1.00618 1.27953 1.14286 1.14286Q1.27953 1.00618 1.42964 0.884043Q1.57974 0.761905 1.74204 0.655303Q1.90434 0.5487 2.07752 0.458503Q2.2507 0.368306 2.43334 0.295249Q2.61598 0.222192 2.8066 0.166871Q2.99721 0.111551 3.19425 0.0744179Q3.39129 0.037285 3.59314 0.0186425Q3.79499 0 4 0Z"/>
	</g>
	<defs>
		<clipPath id="clip_3">
			<rect x="-1220" y="-420" width="2456" height="1807" clip-rule="evenodd"/>
		</clipPath>
	</defs>
	<g clip-path="url(#clip_3)">
		<path fill="rgb(123,182,246)" stroke="none" transform="translate(6.0791 24.748)" d="M20.5441 6.48291C20.5441 7.67269 20.3338 8.71582 19.9132 9.6123C19.4926 10.5088 18.8908 11.2005 18.1078 11.6875C17.3248 12.1745 16.4269 12.418 15.4142 12.418C14.4126 12.418 13.5189 12.1772 12.733 11.6958C11.9472 11.2144 11.3385 10.5268 10.9069 9.63306C10.4752 8.73933 10.2566 7.71143 10.2511 6.54932L10.2511 5.95166C10.2511 4.76188 10.4655 3.7146 10.8944 2.80981C11.3233 1.90502 11.9292 1.21053 12.7123 0.726318C13.4953 0.242104 14.3904 0 15.3976 0C16.4048 0 17.2998 0.242104 18.0829 0.726318C18.8659 1.21053 19.4719 1.90502 19.9008 2.80981C20.3296 3.7146 20.5441 4.75911 20.5441 5.94336L20.5441 6.48291ZM31.4094 8.22607C31.3154 9.52654 30.8353 10.5503 29.9693 11.2974C29.1032 12.0444 27.9619 12.418 26.5452 12.418C24.9957 12.418 23.7769 11.8964 22.8887 10.8533C22.0005 9.81013 21.5564 8.37826 21.5564 6.55762L21.5564 5.81885C21.5564 4.65673 21.7612 3.63298 22.1707 2.74756C22.5802 1.86214 23.1654 1.18286 23.9263 0.709717C24.6872 0.23657 25.5712 0 26.5784 0C27.9729 0 29.0963 0.373531 29.9485 1.12061C30.8007 1.86768 31.2932 2.91633 31.426 4.2666L28.9358 4.2666C28.8749 3.48632 28.6577 2.92049 28.2842 2.56909C27.9107 2.21769 27.3421 2.04199 26.5784 2.04199C25.7483 2.04199 25.1271 2.33943 24.7149 2.93433C24.3026 3.52922 24.0909 4.45198 24.0798 5.70264L24.0798 6.61572C24.0798 7.92172 24.2777 8.8763 24.6734 9.47949C25.069 10.0827 25.693 10.3843 26.5452 10.3843C27.3144 10.3843 27.8885 10.2086 28.2676 9.85718C28.6467 9.50578 28.8639 8.96208 28.9192 8.22607L31.4094 8.22607ZM0 0.166016L0 12.252L3.74365 12.252C4.80062 12.2464 5.74967 12.0029 6.59082 11.5215C7.43197 11.04 8.08358 10.3621 8.54565 9.48779C9.00773 8.61344 9.23877 7.61459 9.23877 6.49121L9.23877 5.93506C9.23877 4.81168 9.00358 3.80868 8.5332 2.92603C8.06282 2.04337 7.40845 1.36271 6.57007 0.884033C5.73169 0.405352 4.78126 0.166016 3.71875 0.166016L0 0.166016ZM39.2035 0.166016L36.9374 4.33301L34.6713 0.166016L31.8075 0.166016L35.327 6.15918L31.7162 12.252L34.6132 12.252L36.9374 8.01855L39.2616 12.252L42.1586 12.252L38.5478 6.15918L42.0673 0.166016L39.2035 0.166016ZM17.34 3.04639C17.7938 3.70492 18.0206 4.6678 18.0206 5.93506L18.0206 6.52441C18.0151 7.78061 17.7882 8.73657 17.34 9.39233C16.8917 10.0481 16.2498 10.376 15.4142 10.376C14.562 10.376 13.909 10.0356 13.4552 9.35498C13.0014 8.67431 12.7745 7.71697 12.7745 6.48291L12.7745 5.89355C12.7801 4.63736 13.0097 3.68417 13.4635 3.03394C13.9173 2.3837 14.562 2.05859 15.3976 2.05859C16.2387 2.05859 16.8862 2.38785 17.34 3.04639ZM2.49023 10.2515L2.49023 2.18311L3.71875 2.18311C4.69825 2.18311 5.44254 2.49992 5.95166 3.13354C6.46078 3.76717 6.71533 4.69824 6.71533 5.92676L6.71533 6.56592C6.70426 7.75017 6.44141 8.66048 5.92676 9.29688C5.41211 9.93327 4.66781 10.2515 3.69385 10.2515L2.49023 10.2515Z" fill-rule="evenodd"/>
	</g>
	<defs>
		<clipPath id="clip_4">
			<rect x="-1220" y="-420" width="2456" height="1807" clip-rule="evenodd"/>
		</clipPath>
	</defs>
	<g clip-path="url(#clip_4)">
		<path fill="rgb(123,182,246)" stroke="none" transform="translate(35 60)" d="M0 3.90093L2.60062 3.90093L2.60062 27.3071L11.0529 27.3071L17.5545 15.7395L17.5545 27.3071L25.3563 27.3071L37.0594 3.90093L39.66 3.90093L39.66 0L27.9572 0L27.9572 3.90093L29.9077 3.90093L25.3563 12.8679L25.3563 0L16.2541 0L8.45202 14.6831L8.45202 3.90093L11.0529 3.90093L11.0529 0L0 0L0 3.90093Z"/>
	</g>

</svg>