<?xml version="1.0" encoding="utf-8" ?>
<svg xmlns="http://www.w3.org/2000/svg" xmlns:xlink="http://www.w3.org/1999/xlink" width="96" height="107">
	<defs>
		<clipPath id="clip_0">
			<rect x="-947" y="-564" width="2456" height="1807" clip-rule="evenodd"/>
		</clipPath>
	</defs>
	<g clip-path="url(#clip_0)">
		<path fill="rgb(198,23,22)" stroke="none" transform="translate(14 0)" d="M81.7694 106.363L0 106.363L0 0L56.2165 0L81.7694 25.3245L81.7694 106.363Z"/>
	</g>
	<defs>
		<clipPath id="clip_1">
			<rect x="-947" y="-564" width="2456" height="1807" clip-rule="evenodd"/>
		</clipPath>
	</defs>
	<g clip-path="url(#clip_1)">
		<path fill="rgb(255,127,127)" stroke="none" transform="translate(68 4)" d="M24.2753 24.0582L0 24.0582L0 0L24.2753 24.0582Z"/>
	</g>
	<defs>
		<clipPath id="clip_2">
			<rect x="-947" y="-564" width="2456" height="1807" clip-rule="evenodd"/>
		</clipPath>
	</defs>
	<g clip-path="url(#clip_2)">
		<path fill="rgb(159,19,18)" stroke="none" transform="translate(0 16)" d="M4 0L51 0Q51.205 0 51.4069 0.0186425Q51.6087 0.037285 51.8058 0.0744179Q52.0028 0.111551 52.1934 0.166871Q52.384 0.222192 52.5667 0.295249Q52.7493 0.368306 52.9225 0.458503Q53.0957 0.5487 53.258 0.655303Q53.4203 0.761905 53.5704 0.884043Q53.7205 1.00618 53.8571 1.14286Q53.9938 1.27953 54.116 1.42964Q54.2381 1.57974 54.3447 1.74204Q54.4513 1.90434 54.5415 2.07752Q54.6317 2.2507 54.7048 2.43334Q54.7778 2.61598 54.8331 2.8066Q54.8885 2.99721 54.9256 3.19425Q54.9627 3.39129 54.9814 3.59314Q55 3.79499 55 4L55 24Q55 24.205 54.9814 24.4069Q54.9627 24.6087 54.9256 24.8058Q54.8885 25.0028 54.8331 25.1934Q54.7778 25.384 54.7048 25.5667Q54.6317 25.7493 54.5415 25.9225Q54.4513 26.0957 54.3447 26.258Q54.2381 26.4203 54.116 26.5704Q53.9938 26.7205 53.8571 26.8571Q53.7205 26.9938 53.5704 27.116Q53.4203 27.2381 53.258 27.3447Q53.0957 27.4513 52.9225 27.5415Q52.7493 27.6317 52.5667 27.7048Q52.384 27.7778 52.1934 27.8331Q52.0028 27.8885 51.8057 27.9256Q51.6087 27.9627 51.4069 27.9814Q51.205 28 51 28L4 28Q3.79499 28 3.59314 27.9814Q3.39129 27.9627 3.19425 27.9256Q2.99721 27.8885 2.8066 27.8331Q2.61598 27.7778 2.43334 27.7048Q2.2507 27.6317 2.07752 27.5415Q1.90434 27.4513 1.74204 27.3447Q1.57974 27.2381 1.42964 27.116Q1.27953 26.9938 1.14286 26.8571Q1.00618 26.7205 0.884043 26.5704Q0.761905 26.4203 0.655303 26.258Q0.5487 26.0957 0.458503 25.9225Q0.368306 25.7493 0.295249 25.5667Q0.222192 25.384 0.166871 25.1934Q0.111551 25.0028 0.0744179 24.8058Q0.037285 24.6087 0.0186425 24.4069Q0 24.205 0 24L0 4Q0 3.79499 0.0186425 3.59314Q0.037285 3.39129 0.0744179 3.19425Q0.111551 2.99721 0.166871 2.8066Q0.222192 2.61598 0.295249 2.43334Q0.368306 2.2507 0.458503 2.07752Q0.5487 1.90434 0.655303 1.74204Q0.761905 1.57974 0.884043 1.42964Q1.00618 1.27953 1.14286 1.14286Q1.27953 1.00618 1.42964 0.884043Q1.57974 0.761905 1.74204 0.655303Q1.90434 0.5487 2.07752 0.458503Q2.2507 0.368306 2.43334 0.295249Q2.61598 0.222192 2.8066 0.166871Q2.99721 0.111551 3.19425 0.0744179Q3.39129 0.037285 3.59314 0.0186425Q3.79499 0 4 0Z"/>
	</g>
	<defs>
		<clipPath id="clip_3">
			<rect x="-947" y="-564" width="2456" height="1807" clip-rule="evenodd"/>
		</clipPath>
	</defs>
	<g clip-path="url(#clip_3)">
		<text fill="rgb(255,127,127)" stroke="none" transform="translate(11 19)" font-size="18" font-weight="bold" font-family="Roboto" x="0" y="18.398438">
				PDF
		</text>
	</g>
	<defs>
		<clipPath id="clip_4">
			<rect x="-947" y="-564" width="2456" height="1807" clip-rule="evenodd"/>
		</clipPath>
	</defs>
	<g clip-path="url(#clip_4)">
		<path fill="rgb(255,127,127)" stroke="none" transform="translate(35 55)" d="M38.0388 28.1176C38.3334 27.8598 38.5544 27.556 38.7017 27.2061C38.849 26.8562 38.9227 26.4788 38.9227 26.0737C38.9963 25.7422 38.9963 25.4292 38.9227 25.1346C38.849 24.8399 38.7201 24.5822 38.536 24.3612C38.0941 23.6246 37.2839 23.0722 36.1054 22.704C34.9269 22.3357 33.3618 22.1516 31.4099 22.1516L27.3221 22.3725L24.6153 20.5496C23.621 19.7394 22.6911 18.6438 21.8256 17.2627C20.9602 15.8817 20.2145 14.3074 19.5884 12.5397L19.6989 12.0977C20.2145 9.99857 20.5919 7.8442 20.8313 5.63456C21.0707 3.42492 20.6748 1.80454 19.6436 0.773371C19.3858 0.515579 19.0912 0.322239 18.7598 0.193343C18.4283 0.0644469 18.0785 0 17.7102 0L16.9921 0C16.4028 0 15.8688 0.257788 15.3901 0.773371C14.9113 1.28895 14.6167 1.84136 14.5062 2.43059C13.917 4.52976 13.7329 6.28824 13.9538 7.70609C14.1748 9.12395 14.5799 10.7904 15.1691 12.7054L15.1691 12.7606C14.8008 14.1232 14.3405 15.5871 13.7881 17.1523C13.2357 18.7174 12.5728 20.3102 11.7994 21.9306L8.76119 27.6204L5.94391 29.1671C4.06571 30.3456 2.65709 31.5425 1.71799 32.7578C0.778891 33.9731 0.235695 34.9858 0.0883853 35.796C0.0147306 36.0907 -0.0128895 36.3761 0.00552415 36.6523C0.0239378 36.9285 0.0883848 37.2139 0.198867 37.5085L0.309348 37.6742L1.80085 38.6133L3.18187 39C4.47083 39 5.86104 38.2266 7.35255 36.6799C8.84406 35.1331 10.5657 32.6842 12.5176 29.3329L13.1252 29.1119C14.7456 28.5963 16.587 28.1544 18.6493 27.7861C20.7116 27.4178 23.087 27.068 25.7754 26.7365C27.3958 27.5467 29.0714 28.1452 30.8023 28.5319C32.5332 28.9186 34.0062 29.1119 35.2215 29.1119C35.8844 29.1119 36.4552 29.029 36.934 28.8633C37.4128 28.6976 37.781 28.449 38.0388 28.1176ZM16.854 4.99929C16.8724 6.12253 17.0657 7.38385 17.434 8.78329L17.5997 8.6728L18.0969 6.07649L18.2074 5.57932C18.3547 4.73229 18.4099 4.04179 18.3731 3.50779C18.3363 2.97379 18.189 2.50425 17.9312 2.09915L17.434 1.98867L17.213 2.32011C16.9552 2.98301 16.8356 3.87606 16.854 4.99929ZM17.7102 16.1856C18.3363 17.585 19.0544 18.8555 19.8646 19.9972C20.6748 21.1388 21.5586 22.1147 22.5161 22.9249L23.7867 23.9193C22.4241 24.1771 20.8313 24.5361 19.0084 24.9965C17.1854 25.4568 15.2796 26.0737 13.2909 26.847L12.9595 26.9575L14.5062 23.6983C15.206 22.3357 15.8228 21.0283 16.3568 19.7762C16.8908 18.5241 17.3419 17.3272 17.7102 16.1856ZM37.0445 26.2394L36.7683 25.9079C36.621 25.7606 36.1422 25.5397 35.332 25.245C34.5218 24.9504 33.0119 24.8031 30.8023 24.8031C30.655 24.8031 30.5353 24.8215 30.4432 24.8584C30.3511 24.8952 30.2314 24.9873 30.0841 25.1346C31.2258 25.6133 32.3214 26 33.371 26.2946C34.4205 26.5892 35.3136 26.7365 36.0501 26.7365L36.6578 26.6813L36.7683 26.6813C36.8419 26.6445 36.9064 26.6076 36.9616 26.5708C37.0169 26.534 37.0445 26.4235 37.0445 26.2394ZM7.93258 30.4929C6.93824 32.3711 5.98074 33.8258 5.06006 34.8569C4.13937 35.8881 3.32918 36.5326 2.62946 36.7904C2.70312 36.2011 3.08059 35.4186 3.7619 34.4426C4.4432 33.4667 5.33626 32.4816 6.44108 31.4873L7.93258 30.4929Z" fill-rule="evenodd"/>
	</g>

</svg>