<?xml version="1.0" encoding="utf-8" ?>
<svg xmlns="http://www.w3.org/2000/svg" xmlns:xlink="http://www.w3.org/1999/xlink" width="96" height="107">
	<defs>
		<clipPath id="clip_0">
			<rect x="-1510" y="-852" width="2456" height="1807" clip-rule="evenodd"/>
		</clipPath>
	</defs>
	<g clip-path="url(#clip_0)">
		<path fill="rgb(230,84,29)" stroke="none" transform="translate(14 0)" d="M81.7694 106.363L0 106.363L0 0L56.2165 0L81.7694 25.3245L81.7694 106.363Z"/>
	</g>
	<defs>
		<clipPath id="clip_1">
			<rect x="-1510" y="-852" width="2456" height="1807" clip-rule="evenodd"/>
		</clipPath>
	</defs>
	<g clip-path="url(#clip_1)">
		<path fill="rgb(255,166,132)" stroke="none" transform="translate(68 4)" d="M24.2753 24.0582L0 24.0582L0 0L24.2753 24.0582Z"/>
	</g>
	<defs>
		<clipPath id="clip_2">
			<rect x="-1510" y="-852" width="2456" height="1807" clip-rule="evenodd"/>
		</clipPath>
	</defs>
	<g clip-path="url(#clip_2)">
		<path fill="rgb(186,60,13)" stroke="none" transform="translate(0 16)" d="M4 0L51 0Q51.205 0 51.4069 0.0186425Q51.6087 0.037285 51.8058 0.0744179Q52.0028 0.111551 52.1934 0.166871Q52.384 0.222192 52.5667 0.295249Q52.7493 0.368306 52.9225 0.458503Q53.0957 0.5487 53.258 0.655303Q53.4203 0.761905 53.5704 0.884043Q53.7205 1.00618 53.8571 1.14286Q53.9938 1.27953 54.116 1.42964Q54.2381 1.57974 54.3447 1.74204Q54.4513 1.90434 54.5415 2.07752Q54.6317 2.2507 54.7048 2.43334Q54.7778 2.61598 54.8331 2.8066Q54.8885 2.99721 54.9256 3.19425Q54.9627 3.39129 54.9814 3.59314Q55 3.79499 55 4L55 24Q55 24.205 54.9814 24.4069Q54.9627 24.6087 54.9256 24.8058Q54.8885 25.0028 54.8331 25.1934Q54.7778 25.384 54.7048 25.5667Q54.6317 25.7493 54.5415 25.9225Q54.4513 26.0957 54.3447 26.258Q54.2381 26.4203 54.116 26.5704Q53.9938 26.7205 53.8571 26.8571Q53.7205 26.9938 53.5704 27.116Q53.4203 27.2381 53.258 27.3447Q53.0957 27.4513 52.9225 27.5415Q52.7493 27.6317 52.5667 27.7048Q52.384 27.7778 52.1934 27.8331Q52.0028 27.8885 51.8057 27.9256Q51.6087 27.9627 51.4069 27.9814Q51.205 28 51 28L4 28Q3.79499 28 3.59314 27.9814Q3.39129 27.9627 3.19425 27.9256Q2.99721 27.8885 2.8066 27.8331Q2.61598 27.7778 2.43334 27.7048Q2.2507 27.6317 2.07752 27.5415Q1.90434 27.4513 1.74204 27.3447Q1.57974 27.2381 1.42964 27.116Q1.27953 26.9938 1.14286 26.8571Q1.00618 26.7205 0.884043 26.5704Q0.761905 26.4203 0.655303 26.258Q0.5487 26.0957 0.458503 25.9225Q0.368306 25.7493 0.295249 25.5667Q0.222192 25.384 0.166871 25.1934Q0.111551 25.0028 0.0744179 24.8058Q0.037285 24.6087 0.0186425 24.4069Q0 24.205 0 24L0 4Q0 3.79499 0.0186425 3.59314Q0.037285 3.39129 0.0744179 3.19425Q0.111551 2.99721 0.166871 2.8066Q0.222192 2.61598 0.295249 2.43334Q0.368306 2.2507 0.458503 2.07752Q0.5487 1.90434 0.655303 1.74204Q0.761905 1.57974 0.884043 1.42964Q1.00618 1.27953 1.14286 1.14286Q1.27953 1.00618 1.42964 0.884043Q1.57974 0.761905 1.74204 0.655303Q1.90434 0.5487 2.07752 0.458503Q2.2507 0.368306 2.43334 0.295249Q2.61598 0.222192 2.8066 0.166871Q2.99721 0.111551 3.19425 0.0744179Q3.39129 0.037285 3.59314 0.0186425Q3.79499 0 4 0Z"/>
	</g>
	<defs>
		<clipPath id="clip_3">
			<rect x="-1510" y="-852" width="2456" height="1807" clip-rule="evenodd"/>
		</clipPath>
	</defs>
	<g clip-path="url(#clip_3)">
		<text fill="rgb(255,166,132)" stroke="none" transform="translate(5 20)" font-size="18" font-weight="bold" font-family="Roboto" x="0" y="18.398438">
				PPTX
		</text>
	</g>
	<defs>
		<clipPath id="clip_4">
			<rect x="-1510" y="-852" width="2456" height="1807" clip-rule="evenodd"/>
		</clipPath>
	</defs>
	<g clip-path="url(#clip_4)">
		<path fill="rgb(255,166,132)" stroke="none" transform="translate(37 54)" d="M20.0039 15.9961L36 15.9961C36 13.7695 35.5781 11.6895 34.7344 9.75586C33.8906 7.82226 32.7481 6.12891 31.3066 4.67578C29.8652 3.22265 28.1719 2.08008 26.2266 1.24805C24.2812 0.416011 22.207 0 20.0039 0L20.0039 15.9961ZM1.24805 13.7461C0.416011 15.6914 0 17.7773 0 20.0039C0 21.2695 0.140624 22.5059 0.421875 23.7129C0.703126 24.9199 1.11328 26.0508 1.65234 27.1055L15.9961 18.8438L15.9961 3.97266C13.7695 3.97266 11.6895 4.39453 9.75586 5.23828C7.82226 6.08204 6.12891 7.2246 4.67578 8.66602C3.22265 10.1074 2.08008 11.8008 1.24805 13.7461ZM31.4824 24.0117C31.8223 22.7227 31.9922 21.3867 31.9922 20.0039L17.1563 20.0039L24.8555 33.3281C25.9336 32.6016 26.9121 31.7637 27.791 30.8145C28.6699 29.8652 29.4199 28.8164 30.041 27.668C30.6621 26.5195 31.1426 25.3008 31.4824 24.0117ZM15.9961 36C14.5898 36 13.2422 35.8301 11.9531 35.4902C10.6641 35.1504 9.45118 34.6641 8.31445 34.0313C7.17773 33.3984 6.12891 32.6426 5.16797 31.7637C4.20703 30.8848 3.36328 29.918 2.63672 28.8633L15.6445 21.3398L23.0977 34.3125C22.043 34.8516 20.9121 35.2676 19.7051 35.5605C18.498 35.8535 17.2617 36 15.9961 36Z" fill-rule="evenodd"/>
	</g>

</svg>