<?xml version="1.0" encoding="utf-8" ?>
<svg xmlns="http://www.w3.org/2000/svg" xmlns:xlink="http://www.w3.org/1999/xlink" width="96" height="107">
	<defs>
		<clipPath id="clip_0">
			<rect x="-1806" y="-274" width="2456" height="1807" clip-rule="evenodd"/>
		</clipPath>
	</defs>
	<g clip-path="url(#clip_0)">
		<path fill="rgb(166,58,61)" stroke="none" transform="translate(14 0)" d="M81.7694 106.363L0 106.363L0 0L56.2165 0L81.7694 25.3245L81.7694 106.363Z"/>
	</g>
	<defs>
		<clipPath id="clip_1">
			<rect x="-1806" y="-274" width="2456" height="1807" clip-rule="evenodd"/>
		</clipPath>
	</defs>
	<g clip-path="url(#clip_1)">
		<path fill="rgb(235,109,113)" stroke="none" transform="translate(68 4)" d="M24.2753 24.0582L0 24.0582L0 0L24.2753 24.0582Z"/>
	</g>
	<defs>
		<clipPath id="clip_2">
			<rect x="-1806" y="-274" width="2456" height="1807" clip-rule="evenodd"/>
		</clipPath>
	</defs>
	<g clip-path="url(#clip_2)">
		<path fill="rgb(92,28,30)" stroke="none" transform="translate(0 16)" d="M4 0L51 0Q51.205 0 51.4069 0.0186425Q51.6087 0.037285 51.8058 0.0744179Q52.0028 0.111551 52.1934 0.166871Q52.384 0.222192 52.5667 0.295249Q52.7493 0.368306 52.9225 0.458503Q53.0957 0.5487 53.258 0.655303Q53.4203 0.761905 53.5704 0.884043Q53.7205 1.00618 53.8571 1.14286Q53.9938 1.27953 54.116 1.42964Q54.2381 1.57974 54.3447 1.74204Q54.4513 1.90434 54.5415 2.07752Q54.6317 2.2507 54.7048 2.43334Q54.7778 2.61598 54.8331 2.8066Q54.8885 2.99721 54.9256 3.19425Q54.9627 3.39129 54.9814 3.59314Q55 3.79499 55 4L55 24Q55 24.205 54.9814 24.4069Q54.9627 24.6087 54.9256 24.8058Q54.8885 25.0028 54.8331 25.1934Q54.7778 25.384 54.7048 25.5667Q54.6317 25.7493 54.5415 25.9225Q54.4513 26.0957 54.3447 26.258Q54.2381 26.4203 54.116 26.5704Q53.9938 26.7205 53.8571 26.8571Q53.7205 26.9938 53.5704 27.116Q53.4203 27.2381 53.258 27.3447Q53.0957 27.4513 52.9225 27.5415Q52.7493 27.6317 52.5667 27.7048Q52.384 27.7778 52.1934 27.8331Q52.0028 27.8885 51.8057 27.9256Q51.6087 27.9627 51.4069 27.9814Q51.205 28 51 28L4 28Q3.79499 28 3.59314 27.9814Q3.39129 27.9627 3.19425 27.9256Q2.99721 27.8885 2.8066 27.8331Q2.61598 27.7778 2.43334 27.7048Q2.2507 27.6317 2.07752 27.5415Q1.90434 27.4513 1.74204 27.3447Q1.57974 27.2381 1.42964 27.116Q1.27953 26.9938 1.14286 26.8571Q1.00618 26.7205 0.884043 26.5704Q0.761905 26.4203 0.655303 26.258Q0.5487 26.0957 0.458503 25.9225Q0.368306 25.7493 0.295249 25.5667Q0.222192 25.384 0.166871 25.1934Q0.111551 25.0028 0.0744179 24.8058Q0.037285 24.6087 0.0186425 24.4069Q0 24.205 0 24L0 4Q0 3.79499 0.0186425 3.59314Q0.037285 3.39129 0.0744179 3.19425Q0.111551 2.99721 0.166871 2.8066Q0.222192 2.61598 0.295249 2.43334Q0.368306 2.2507 0.458503 2.07752Q0.5487 1.90434 0.655303 1.74204Q0.761905 1.57974 0.884043 1.42964Q1.00618 1.27953 1.14286 1.14286Q1.27953 1.00618 1.42964 0.884043Q1.57974 0.761905 1.74204 0.655303Q1.90434 0.5487 2.07752 0.458503Q2.2507 0.368306 2.43334 0.295249Q2.61598 0.222192 2.8066 0.166871Q2.99721 0.111551 3.19425 0.0744179Q3.39129 0.037285 3.59314 0.0186425Q3.79499 0 4 0Z"/>
	</g>
	<defs>
		<clipPath id="clip_3">
			<rect x="-1806" y="-274" width="2456" height="1807" clip-rule="evenodd"/>
		</clipPath>
	</defs>
	<g clip-path="url(#clip_3)">
		<path fill="rgb(235,109,113)" stroke="none" transform="translate(12.5728 23.748)" d="M6.27539 7.9978C6.60742 8.24959 6.77344 8.61067 6.77344 9.08105C6.77344 9.5127 6.60742 9.84888 6.27539 10.0896C5.94336 10.3303 5.48129 10.4507 4.88916 10.4507C3.2954 10.4507 2.49854 9.78386 2.49854 8.4502L0 8.4502C0 9.23047 0.2006 9.91666 0.601807 10.5088C1.00301 11.1009 1.58545 11.5671 2.34912 11.9075C3.1128 12.2478 3.95947 12.418 4.88916 12.418C6.22836 12.418 7.29362 12.1205 8.08496 11.5256C8.87631 10.9307 9.27197 10.1104 9.27197 9.06445C9.27197 8.12369 8.94825 7.33789 8.30078 6.70703C7.65332 6.07617 6.62126 5.54769 5.20459 5.12158C4.43538 4.88916 3.85295 4.64014 3.45728 4.37451C3.0616 4.10889 2.86377 3.77962 2.86377 3.38672C2.86377 2.96614 3.03255 2.6272 3.37012 2.36987C3.70768 2.11255 4.18082 1.98389 4.78955 1.98389C5.42041 1.98389 5.91015 2.13745 6.25879 2.44458C6.60742 2.75171 6.78174 3.18196 6.78174 3.73535L9.27197 3.73535C9.27197 3.01041 9.08521 2.36296 8.71167 1.79297C8.33813 1.22298 7.81381 0.781658 7.13867 0.468994C6.46354 0.15633 5.69434 0 4.83105 0C3.9733 0 3.19995 0.143879 2.51099 0.431641C1.82202 0.719402 1.29354 1.11922 0.925537 1.6311C0.557534 2.14299 0.373535 2.72542 0.373535 3.37842C0.373535 4.63461 1.05973 5.63346 2.43213 6.375C2.93571 6.64616 3.61914 6.92147 4.48242 7.20093C5.34571 7.48039 5.94336 7.74601 6.27539 7.9978ZM19.8883 9.42554C20.2535 8.59269 20.4362 7.61182 20.4362 6.48291L20.4362 5.94336C20.4362 4.75911 20.2217 3.7146 19.7929 2.80981C19.364 1.90502 18.758 1.21053 17.975 0.726318C17.1919 0.242104 16.2968 0 15.2897 0C14.2825 0 13.3874 0.242104 12.6044 0.726318C11.8213 1.21053 11.2154 1.90502 10.7865 2.80981C10.3576 3.7146 10.1432 4.76188 10.1432 5.95166L10.1432 6.54932C10.1487 7.71143 10.3673 8.73934 10.799 9.63306C11.2306 10.5268 11.8393 11.2144 12.6251 11.6958C13.4109 12.1772 14.3046 12.418 15.3063 12.418C15.6217 12.418 15.9261 12.3931 16.2194 12.3433L18.7926 14.4102L20.3781 13.0073L18.3693 11.4302C19.0167 10.9266 19.5231 10.2584 19.8883 9.42554ZM29.6082 10.2515L24.3206 10.2515L24.3206 0.166016L21.8303 0.166016L21.8303 12.252L29.6082 12.252L29.6082 10.2515ZM17.9127 5.93506C17.9127 4.6678 17.6858 3.70492 17.2321 3.04639C16.7783 2.38785 16.1308 2.05859 15.2897 2.05859C14.4541 2.05859 13.8094 2.3837 13.3556 3.03394C12.9018 3.68417 12.6722 4.63736 12.6666 5.89355L12.6666 6.48291C12.6666 7.71697 12.8935 8.67431 13.3473 9.35498C13.8011 10.0356 14.4541 10.376 15.3063 10.376C16.1419 10.376 16.7838 10.0481 17.2321 9.39233C17.6803 8.73657 17.9072 7.78061 17.9127 6.52441L17.9127 5.93506Z" fill-rule="evenodd"/>
	</g>
	<defs>
		<clipPath id="clip_4">
			<rect x="-1806" y="-274" width="2456" height="1807" clip-rule="evenodd"/>
		</clipPath>
	</defs>
	<g clip-path="url(#clip_4)">
		<path fill="rgb(235,109,113)" stroke="none" transform="translate(35 50)" d="M2.00391 0L33.9961 0C34.5352 0 35.0039 0.193357 35.4023 0.580078C35.8008 0.966799 36 1.4414 36 2.00391L36 9.98438C36 10.5469 35.8008 11.0215 35.4023 11.4082C35.0039 11.7949 34.5352 11.9883 33.9961 11.9883L2.00391 11.9883C1.4414 11.9883 0.966799 11.7949 0.580078 11.4082C0.193357 11.0215 0 10.5469 0 9.98438L0 2.00391C0 1.4414 0.193357 0.966799 0.580078 0.580078C0.966799 0.193357 1.4414 0 2.00391 0ZM4.00781 7.98047L4.00781 4.00781L7.98047 4.00781L7.98047 7.98047L4.00781 7.98047ZM11.9883 7.98047L13.9922 7.98047L13.9922 4.00781L11.9883 4.00781L11.9883 7.98047ZM2.00391 15.9961L33.9961 15.9961C34.5352 15.9961 35.0039 16.1895 35.4023 16.5762C35.8008 16.9629 36 17.4375 36 18L36 19.3359L31.0078 17.1211L18 22.8867L18 27.9844L2.00391 27.9844C1.4414 27.9844 0.966799 27.791 0.580078 27.4043C0.193357 27.0176 0 26.543 0 25.9805L0 18C0 17.4375 0.193357 16.9629 0.580078 16.5762C0.966799 16.1895 1.4414 15.9961 2.00391 15.9961ZM4.00781 20.0039L4.00781 24.0117L7.98047 24.0117L7.98047 20.0039L4.00781 20.0039ZM13.9922 24.0117L11.9883 24.0117L11.9883 20.0039L13.9922 20.0039L13.9922 24.0117ZM31.0078 22.0078L40.0078 25.9805L40.0078 31.9922C40.0078 33.375 39.7793 34.7226 39.3223 36.0352C38.8652 37.3477 38.2324 38.5371 37.4238 39.6035C36.6152 40.6699 35.666 41.5898 34.5762 42.3633C33.4863 43.1367 32.2969 43.6758 31.0078 43.9805C29.7187 43.6758 28.5234 43.1367 27.4219 42.3633C26.3203 41.5898 25.3652 40.6699 24.5566 39.6035C23.748 38.5371 23.1211 37.3477 22.6758 36.0352C22.2305 34.7226 22.0078 33.375 22.0078 31.9922L22.0078 25.9805L31.0078 22.0078ZM25.9805 28.125L31.0078 25.875L31.0078 40.1133C29.5781 39.7617 28.3828 38.9473 27.4219 37.6699C26.4609 36.3926 25.9805 34.9805 25.9805 33.4336L25.9805 28.125ZM18 31.9922L2.00391 31.9922C1.4414 31.9922 0.966799 32.1914 0.580078 32.5898C0.193357 32.9883 0 33.457 0 33.9961L0 42.0117C0 42.5508 0.193357 43.0137 0.580078 43.4004C0.966799 43.7871 1.4414 43.9805 2.00391 43.9805L22.9219 43.9805C22.1953 43.1836 21.5332 42.3223 20.9355 41.3965C20.3379 40.4707 19.8281 39.4981 19.4063 38.4785C18.9844 37.459 18.6504 36.4043 18.4043 35.3145C18.1582 34.2246 18.0234 33.1172 18 31.9922ZM4.00781 40.0078L4.00781 36L7.98047 36L7.98047 40.0078L4.00781 40.0078ZM11.9883 40.0078L13.9922 40.0078L13.9922 36L11.9883 36L11.9883 40.0078Z" fill-rule="evenodd"/>
	</g>

</svg>