<?xml version="1.0" encoding="utf-8" ?>
<svg xmlns="http://www.w3.org/2000/svg" xmlns:xlink="http://www.w3.org/1999/xlink" width="96" height="107">
	<defs>
		<clipPath id="clip_0">
			<rect x="-1509" y="-564" width="2456" height="1807" clip-rule="evenodd"/>
		</clipPath>
	</defs>
	<g clip-path="url(#clip_0)">
		<path fill="rgb(121,169,46)" stroke="none" transform="translate(14 0)" d="M81.7694 106.363L0 106.363L0 0L56.2165 0L81.7694 25.3245L81.7694 106.363Z"/>
	</g>
	<defs>
		<clipPath id="clip_1">
			<rect x="-1509" y="-564" width="2456" height="1807" clip-rule="evenodd"/>
		</clipPath>
	</defs>
	<g clip-path="url(#clip_1)">
		<path fill="rgb(153,205,72)" stroke="none" transform="translate(68 4)" d="M24.2753 24.0582L0 24.0582L0 0L24.2753 24.0582Z"/>
	</g>
	<defs>
		<clipPath id="clip_2">
			<rect x="-1509" y="-564" width="2456" height="1807" clip-rule="evenodd"/>
		</clipPath>
	</defs>
	<g clip-path="url(#clip_2)">
		<path fill="rgb(101,140,40)" stroke="none" transform="translate(0 16)" d="M4 0L51 0Q51.205 0 51.4069 0.0186425Q51.6087 0.037285 51.8058 0.0744179Q52.0028 0.111551 52.1934 0.166871Q52.384 0.222192 52.5667 0.295249Q52.7493 0.368306 52.9225 0.458503Q53.0957 0.5487 53.258 0.655303Q53.4203 0.761905 53.5704 0.884043Q53.7205 1.00618 53.8571 1.14286Q53.9938 1.27953 54.116 1.42964Q54.2381 1.57974 54.3447 1.74204Q54.4513 1.90434 54.5415 2.07752Q54.6317 2.2507 54.7048 2.43334Q54.7778 2.61598 54.8331 2.8066Q54.8885 2.99721 54.9256 3.19425Q54.9627 3.39129 54.9814 3.59314Q55 3.79499 55 4L55 24Q55 24.205 54.9814 24.4069Q54.9627 24.6087 54.9256 24.8058Q54.8885 25.0028 54.8331 25.1934Q54.7778 25.384 54.7048 25.5667Q54.6317 25.7493 54.5415 25.9225Q54.4513 26.0957 54.3447 26.258Q54.2381 26.4203 54.116 26.5704Q53.9938 26.7205 53.8571 26.8571Q53.7205 26.9938 53.5704 27.116Q53.4203 27.2381 53.258 27.3447Q53.0957 27.4513 52.9225 27.5415Q52.7493 27.6317 52.5667 27.7048Q52.384 27.7778 52.1934 27.8331Q52.0028 27.8885 51.8057 27.9256Q51.6087 27.9627 51.4069 27.9814Q51.205 28 51 28L4 28Q3.79499 28 3.59314 27.9814Q3.39129 27.9627 3.19425 27.9256Q2.99721 27.8885 2.8066 27.8331Q2.61598 27.7778 2.43334 27.7048Q2.2507 27.6317 2.07752 27.5415Q1.90434 27.4513 1.74204 27.3447Q1.57974 27.2381 1.42964 27.116Q1.27953 26.9938 1.14286 26.8571Q1.00618 26.7205 0.884043 26.5704Q0.761905 26.4203 0.655303 26.258Q0.5487 26.0957 0.458503 25.9225Q0.368306 25.7493 0.295249 25.5667Q0.222192 25.384 0.166871 25.1934Q0.111551 25.0028 0.0744179 24.8058Q0.037285 24.6087 0.0186425 24.4069Q0 24.205 0 24L0 4Q0 3.79499 0.0186425 3.59314Q0.037285 3.39129 0.0744179 3.19425Q0.111551 2.99721 0.166871 2.8066Q0.222192 2.61598 0.295249 2.43334Q0.368306 2.2507 0.458503 2.07752Q0.5487 1.90434 0.655303 1.74204Q0.761905 1.57974 0.884043 1.42964Q1.00618 1.27953 1.14286 1.14286Q1.27953 1.00618 1.42964 0.884043Q1.57974 0.761905 1.74204 0.655303Q1.90434 0.5487 2.07752 0.458503Q2.2507 0.368306 2.43334 0.295249Q2.61598 0.222192 2.8066 0.166871Q2.99721 0.111551 3.19425 0.0744179Q3.39129 0.037285 3.59314 0.0186425Q3.79499 0 4 0Z"/>
	</g>
	<defs>
		<clipPath id="clip_3">
			<rect x="-1509" y="-564" width="2456" height="1807" clip-rule="evenodd"/>
		</clipPath>
	</defs>
	<g clip-path="url(#clip_3)">
		<path fill="rgb(153,205,72)" stroke="none" transform="translate(11.1934 24.0273)" d="M27.3753 8.46826C27.7268 8.73487 27.9026 9.11718 27.9026 9.61523C27.9026 10.0723 27.7268 10.4282 27.3753 10.6831C27.0237 10.938 26.5344 11.0654 25.9075 11.0654C24.22 11.0654 23.3762 10.3594 23.3762 8.94727L20.7307 8.94727C20.7307 9.77344 20.9431 10.5 21.3679 11.127C21.7927 11.7539 22.4094 12.2476 23.218 12.6079C24.0266 12.9683 24.9231 13.1484 25.9075 13.1484C27.3255 13.1484 28.4534 12.8335 29.2913 12.2036C30.1292 11.5737 30.5481 10.7051 30.5481 9.59766C30.5481 8.60156 30.2053 7.76953 29.5198 7.10156C28.8342 6.43359 27.7415 5.87403 26.2415 5.42285C25.427 5.17676 24.8103 4.91309 24.3914 4.63184C23.9724 4.35058 23.763 4.00196 23.763 3.58594C23.763 3.14062 23.9417 2.78174 24.2991 2.50928C24.6565 2.23682 25.1575 2.10059 25.802 2.10059C26.47 2.10059 26.9885 2.26318 27.3577 2.58838C27.7268 2.91358 27.9114 3.36914 27.9114 3.95508L30.5481 3.95508C30.5481 3.1875 30.3504 2.50196 29.9548 1.89844C29.5593 1.29492 29.0042 0.827638 28.2893 0.496582C27.5745 0.165526 26.76 0 25.846 0C24.9378 0 24.1189 0.152342 23.3894 0.457031C22.6599 0.76172 22.1004 1.18506 21.7107 1.72705C21.3211 2.26905 21.1262 2.88574 21.1262 3.57715C21.1262 4.90723 21.8528 5.96484 23.3059 6.75C23.8391 7.03711 24.5628 7.32861 25.4768 7.62451C26.3909 7.92041 27.0237 8.20166 27.3753 8.46826ZM5.52832 4.58789L7.92773 0.175781L10.96 0.175781L7.2334 6.52148L11.0566 12.9727L7.98926 12.9727L5.52832 8.49023L3.06738 12.9727L0 12.9727L3.82324 6.52148L0.0966797 0.175781L3.12891 0.175781L5.52832 4.58789ZM14.5885 10.8545L20.1871 10.8545L20.1871 12.9727L11.9518 12.9727L11.9518 0.175781L14.5885 0.175781L14.5885 10.8545Z" fill-rule="evenodd"/>
	</g>
	<defs>
		<clipPath id="clip_4">
			<rect x="-1509" y="-564" width="2456" height="1807" clip-rule="evenodd"/>
		</clipPath>
	</defs>
	<g clip-path="url(#clip_4)">
		<path fill="rgb(153,205,72)" stroke="none" transform="translate(38 57)" d="M35.5625 0L21.375 0L21.375 7.125L24.875 7.125L17.8125 13.0625L10.6875 7.125L14.25 7.125L14.25 0L0 0L0 7.125L3.5625 7.125L14.25 16L3.5625 24.875L0 24.875L0 32L14.25 32L14.25 24.875L10.6875 24.875L17.8125 18.9375L24.875 24.875L21.375 24.875L21.375 32L35.5625 32L35.5625 24.875L32 24.875L21.375 16L32 7.125L35.5625 7.125L35.5625 0Z"/>
	</g>

</svg>