<?xml version="1.0" encoding="utf-8" ?>
<svg xmlns="http://www.w3.org/2000/svg" xmlns:xlink="http://www.w3.org/1999/xlink" width="96" height="107">
	<defs>
		<clipPath id="clip_0">
			<rect x="-1805" y="-564" width="2456" height="1807" clip-rule="evenodd"/>
		</clipPath>
	</defs>
	<g clip-path="url(#clip_0)">
		<path fill="rgb(121,169,46)" stroke="none" transform="translate(14 0)" d="M81.7694 106.363L0 106.363L0 0L56.2165 0L81.7694 25.3245L81.7694 106.363Z"/>
	</g>
	<defs>
		<clipPath id="clip_1">
			<rect x="-1805" y="-564" width="2456" height="1807" clip-rule="evenodd"/>
		</clipPath>
	</defs>
	<g clip-path="url(#clip_1)">
		<path fill="rgb(153,205,72)" stroke="none" transform="translate(68 4)" d="M24.2753 24.0582L0 24.0582L0 0L24.2753 24.0582Z"/>
	</g>
	<defs>
		<clipPath id="clip_2">
			<rect x="-1805" y="-564" width="2456" height="1807" clip-rule="evenodd"/>
		</clipPath>
	</defs>
	<g clip-path="url(#clip_2)">
		<path fill="rgb(101,140,40)" stroke="none" transform="translate(0 16)" d="M4 0L51 0Q51.205 0 51.4069 0.0186425Q51.6087 0.037285 51.8058 0.0744179Q52.0028 0.111551 52.1934 0.166871Q52.384 0.222192 52.5667 0.295249Q52.7493 0.368306 52.9225 0.458503Q53.0957 0.5487 53.258 0.655303Q53.4203 0.761905 53.5704 0.884043Q53.7205 1.00618 53.8571 1.14286Q53.9938 1.27953 54.116 1.42964Q54.2381 1.57974 54.3447 1.74204Q54.4513 1.90434 54.5415 2.07752Q54.6317 2.2507 54.7048 2.43334Q54.7778 2.61598 54.8331 2.8066Q54.8885 2.99721 54.9256 3.19425Q54.9627 3.39129 54.9814 3.59314Q55 3.79499 55 4L55 24Q55 24.205 54.9814 24.4069Q54.9627 24.6087 54.9256 24.8058Q54.8885 25.0028 54.8331 25.1934Q54.7778 25.384 54.7048 25.5667Q54.6317 25.7493 54.5415 25.9225Q54.4513 26.0957 54.3447 26.258Q54.2381 26.4203 54.116 26.5704Q53.9938 26.7205 53.8571 26.8571Q53.7205 26.9938 53.5704 27.116Q53.4203 27.2381 53.258 27.3447Q53.0957 27.4513 52.9225 27.5415Q52.7493 27.6317 52.5667 27.7048Q52.384 27.7778 52.1934 27.8331Q52.0028 27.8885 51.8057 27.9256Q51.6087 27.9627 51.4069 27.9814Q51.205 28 51 28L4 28Q3.79499 28 3.59314 27.9814Q3.39129 27.9627 3.19425 27.9256Q2.99721 27.8885 2.8066 27.8331Q2.61598 27.7778 2.43334 27.7048Q2.2507 27.6317 2.07752 27.5415Q1.90434 27.4513 1.74204 27.3447Q1.57974 27.2381 1.42964 27.116Q1.27953 26.9938 1.14286 26.8571Q1.00618 26.7205 0.884043 26.5704Q0.761905 26.4203 0.655303 26.258Q0.5487 26.0957 0.458503 25.9225Q0.368306 25.7493 0.295249 25.5667Q0.222192 25.384 0.166871 25.1934Q0.111551 25.0028 0.0744179 24.8058Q0.037285 24.6087 0.0186425 24.4069Q0 24.205 0 24L0 4Q0 3.79499 0.0186425 3.59314Q0.037285 3.39129 0.0744179 3.19425Q0.111551 2.99721 0.166871 2.8066Q0.222192 2.61598 0.295249 2.43334Q0.368306 2.2507 0.458503 2.07752Q0.5487 1.90434 0.655303 1.74204Q0.761905 1.57974 0.884043 1.42964Q1.00618 1.27953 1.14286 1.14286Q1.27953 1.00618 1.42964 0.884043Q1.57974 0.761905 1.74204 0.655303Q1.90434 0.5487 2.07752 0.458503Q2.2507 0.368306 2.43334 0.295249Q2.61598 0.222192 2.8066 0.166871Q2.99721 0.111551 3.19425 0.0744179Q3.39129 0.037285 3.59314 0.0186425Q3.79499 0 4 0Z"/>
	</g>
	<defs>
		<clipPath id="clip_3">
			<rect x="-1805" y="-564" width="2456" height="1807" clip-rule="evenodd"/>
		</clipPath>
	</defs>
	<g clip-path="url(#clip_3)">
		<path fill="rgb(153,205,72)" stroke="none" transform="translate(8 24)" d="M26.3045 9.08105C26.3045 8.61067 26.1384 8.24959 25.8064 7.9978C25.4744 7.74601 24.8767 7.48039 24.0134 7.20093C23.1502 6.92147 22.4667 6.64616 21.9631 6.375C20.5907 5.63346 19.9046 4.63461 19.9046 3.37842C19.9046 2.72542 20.0886 2.14299 20.4566 1.6311C20.8246 1.11922 21.353 0.719402 22.042 0.431641C22.731 0.143879 23.5043 0 24.3621 0C25.2254 0 25.9946 0.15633 26.6697 0.468994C27.3448 0.781658 27.8692 1.22298 28.2427 1.79297C28.6162 2.36296 28.803 3.01041 28.803 3.73535L26.3128 3.73535C26.3128 3.18196 26.1384 2.75171 25.7898 2.44458C25.4412 2.13745 24.9514 1.98389 24.3206 1.98389C23.7118 1.98389 23.2387 2.11255 22.9011 2.36987C22.5636 2.6272 22.3948 2.96614 22.3948 3.38672C22.3948 3.77962 22.5926 4.10889 22.9883 4.37451C23.384 4.64014 23.9664 4.88916 24.7356 5.12158C26.1523 5.54769 27.1843 6.07617 27.8318 6.70703C28.4793 7.33789 28.803 8.12369 28.803 9.06445C28.803 10.1104 28.4073 10.9307 27.616 11.5256C26.8246 12.1205 25.7594 12.418 24.4202 12.418C23.4905 12.418 22.6438 12.2478 21.8801 11.9075C21.1165 11.5671 20.534 11.1009 20.1328 10.5088C19.7316 9.91666 19.531 9.23047 19.531 8.4502L22.0296 8.4502C22.0296 9.78386 22.8264 10.4507 24.4202 10.4507C25.0123 10.4507 25.4744 10.3303 25.8064 10.0896C26.1384 9.84888 26.3045 9.5127 26.3045 9.08105ZM7.48731 0.166016L5.22119 4.33301L2.95508 0.166016L0.0913086 0.166016L3.61084 6.15918L0 12.252L2.89697 12.252L5.22119 8.01855L7.54541 12.252L10.4424 12.252L6.83154 6.15918L10.3511 0.166016L7.48731 0.166016ZM19.0416 10.2515L13.754 10.2515L13.754 0.166016L11.2638 0.166016L11.2638 12.252L19.0416 12.252L19.0416 10.2515ZM36.6469 0.166016L34.3808 4.33301L32.1146 0.166016L29.2509 0.166016L32.7704 6.15918L29.1596 12.252L32.0565 12.252L34.3808 8.01855L36.705 12.252L39.602 12.252L35.9911 6.15918L39.5106 0.166016L36.6469 0.166016Z" fill-rule="evenodd"/>
	</g>
	<defs>
		<clipPath id="clip_4">
			<rect x="-1805" y="-564" width="2456" height="1807" clip-rule="evenodd"/>
		</clipPath>
	</defs>
	<g clip-path="url(#clip_4)">
		<path fill="rgb(153,205,72)" stroke="none" transform="translate(38 57)" d="M35.5625 0L21.375 0L21.375 7.125L24.875 7.125L17.8125 13.0625L10.6875 7.125L14.25 7.125L14.25 0L0 0L0 7.125L3.5625 7.125L14.25 16L3.5625 24.875L0 24.875L0 32L14.25 32L14.25 24.875L10.6875 24.875L17.8125 18.9375L24.875 24.875L21.375 24.875L21.375 32L35.5625 32L35.5625 24.875L32 24.875L21.375 16L32 7.125L35.5625 7.125L35.5625 0Z"/>
	</g>

</svg>